<?xml version="1.0" encoding="utf-8"?>
<!-- Generator: Adobe Illustrator 19.0.1, SVG Export Plug-In . SVG Version: 6.00 Build 0)  -->
<!DOCTYPE svg PUBLIC "-//W3C//DTD SVG 1.1//EN" "http://www.w3.org/Graphics/SVG/1.1/DTD/svg11.dtd">
<svg version="1.1" id="Layer_1" xmlns="http://www.w3.org/2000/svg" xmlns:xlink="http://www.w3.org/1999/xlink" x="0px" y="0px"
	 width="782.1px" height="636px" viewBox="0 0 782.1 636" style="enable-background:new 0 0 782.1 636;" xml:space="preserve">
<style type="text/css">
	.st0{fill:#444444;}
</style>
<path class="st0" d="M582,586c-8.8,0-16-7.2-16-16s7.2-16,16-16s16,7.2,16,16S590.8,586,582,586z M582,556c-7.7,0-14,6.3-14,14
	s6.3,14,14,14s14-6.3,14-14S589.7,556,582,556z M582,566l8,4l-8,4V566z M578,566h2v8h-2V566z"/>
<path class="st0" d="M446,586c-8.8,0-16-7.2-16-16s7.2-16,16-16s16,7.2,16,16S454.8,586,446,586z M446,556c-7.7,0-14,6.3-14,14
	s6.3,14,14,14s14-6.3,14-14S453.7,556,446,556z M448,566h2v8h-2V566z M446,566v8l-8-4L446,566z"/>
<path class="st0" d="M70,582v-2c5.5,0,10-4.5,10-10s-4.5-10-10-10v-2c6.6,0,12,5.4,12,12S76.6,582,70,582z M74,570c0,3.3-2.7,6-6,6
	v-2c2.2,0,4-1.8,4-4s-1.8-4-4-4v-2C71.3,564,74,566.7,74,570z M56.6,576H52h-2v-2v-8v-2h2h4.6l5.4-6h2v24h-2L56.6,576z M62,561.4
	l-4.3,4.3L57,566h-5v8h5l0.7,0.3l4.3,4.3V561.4z"/>
<path class="st0" d="M310,586c-8.8,0-16-7.2-16-16s7.2-16,16-16s16,7.2,16,16S318.8,586,310,586z M310,556c-7.7,0-14,6.3-14,14
	s6.3,14,14,14s14-6.3,14-14S317.7,556,310,556z M306,566h8v8h-8V566z"/>
<path class="st0" d="M180,586c-8.8,0-16-7.2-16-16s7.2-16,16-16s16,7.2,16,16S188.8,586,180,586z M180,556c-7.7,0-14,6.3-14,14
	s6.3,14,14,14s14-6.3,14-14S187.7,556,180,556z M182,566h2v8h-2V566z M176,574v-8h2v8H176z"/>
<path class="st0" d="M716,586c-8.8,0-16-7.2-16-16s7.2-16,16-16s16,7.2,16,16S724.8,586,716,586z M716,556c-7.7,0-14,6.3-14,14
	s6.3,14,14,14s14-6.3,14-14S723.7,556,716,556z M712,566l8,4l-8,4V566z"/>
<path class="st0" d="M194,502h-16h-2v-2v-16v-2h2h16h2v2v16v2H194z M194,484h-16v16h16V484z M166,512h16v-6h2v6v2h-2h-16h-2v-2v-16
	v-2h2h6v2h-6V512z"/>
<path class="st0" d="M50,514v-32h32v32H50z M52,512h20.6l-12.1-12.1l-8.5,8.5V512z M80,484H52v21.6l8.3-8.3h0.4L75.4,512H80V484z
	 M73.1,498c-0.2,0-0.4,0-0.6,0c-2.5,0-4.5-1.8-4.5-4s2-4,4.5-4c0.2,0,0.4,0,0.6,0c-1.7,0.2-3.1,1.9-3.1,4S71.3,497.7,73.1,498z"/>
<path class="st0" d="M566,514v-32h32v32H566z M596,484h-28v28h28V484z M579,495h-4v-4h4V495z M579,505h-4v-4h4V505z M589,495h-4v-4
	h4V495z M589,505h-4v-4h4V505z"/>
<path class="st0" d="M730.1,514h-28h-2v-2v-28v-2h2h28h2v2v28v2H730.1z M730.1,484h-28v28h28V484z M710,492h-1.9v-2h1.9V492z
	 M710,499h-1.9v-2h1.9V499z M710,506h-1.9v-2h1.9V506z M724.1,504v2H712v-2H724.1z M712,497h12.1v2H712V497z M712,490h12.1v2H712
	V490z"/>
<path class="st0" d="M448.1,514v-14h14v14H448.1z M460.1,502h-10v10h10V502z M448.1,482h14v14h-14V482z M450.1,494h10v-10h-10V494z
	 M430.1,500h14v14h-14V500z M432.1,512h10v-10h-10V512z M430.1,482h14v14h-14V482z M432.1,494h10v-10h-10V494z"/>
<path class="st0" d="M324.1,514h-28h-2v-2v-28v-2h2h28h2v2v28v2H324.1z M324.1,484h-28v28h28V484z M318.1,492h-16v-2h16V492z
	 M318.1,499h-16v-2h16V499z M318.1,506h-16v-2h16V506z"/>
<path class="st0" d="M194,434v-22h-22v-2h22h2v2v22H194z M190,442h-26v-26h26V442z M188,418h-22v9h22V418z M188,429h-22v11h22V429z
	 M172,424h-2v-2h2V424z M176,424h-2v-2h2V424z M184,424h-6v-2h6V424z"/>
<path class="st0" d="M294,442v-32h32v32H294z M324,412h-28v9h28V412z M324,423h-28v17h28V423z M302,418h-2v-2h2V418z M306,418h-2v-2
	h2V418z M320,418h-12v-2h12V418z"/>
<path class="st0" d="M447,436v4h9v2h-9h-2h-9v-2h9v-4h-15v-26h32v26H447z M460,412h-28v22h13h2h13V412z"/>
<path class="st0" d="M700,442v-32h32v32H700z M730,412h-28v18h28V412z M730,432h-28v8h28V432z M718,438h-4v-4h4V438z"/>
<path class="st0" d="M591.3,442h-20h-2v-2v-28v-2h2h20h2v2v28v2H591.3z M591.3,412h-20v28h20V412z M589.3,432h-16v-18h16V432z
	 M587.3,416h-12v14h12V416z M583.3,438h-4v-4h4V438z"/>
<path class="st0" d="M80.1,442h-28h-2v-2v-10v-2l0,0l3-18h1h24h1l3,18l0,0v12v2H80.1z M77.4,412H54.8l-2.4,16h6.7h2v2v2h10v-2v-2h2
	h6.7L77.4,412z M80.1,430.1L80.1,430.1l-7-0.1v2v1v1h-12h-2v-2v-2h-7v0.1v9.9h28C80.1,440,80.1,430.1,80.1,430.1z M58.1,422h16v2
	h-16V422z M60.1,416h12v2h-12V416z"/>
<path class="st0" d="M582,370c-8.8,0-16-7.2-16-16s7.2-16,16-16s16,7.2,16,16S590.8,370,582,370z M582,340c-7.7,0-14,6.3-14,14
	s6.3,14,14,14s14-6.3,14-14S589.7,340,582,340z M587.9,361.2l-0.4,0.2l-1,0.6l-0.6,0.4c-0.4,0.2-0.9,0.4-1.4,0.5v-0.6l-0.2-1.4
	c0,0-0.1-0.8-0.2-1s-0.4-0.5-0.7-0.6s-0.5-0.1-0.7-0.3c-0.2-0.2-0.3-0.6-0.5-0.9s-0.5-0.7-0.5-0.8c0-0.2,0-1.9,0-1.9l0.2-1.6
	l0.5-0.3l0.5-0.6l0.4-0.1l1.3,0.2h0.9l0.4,0.8l0.9,0.7l0.5,0.9l0.7,0.2h0.8l0.6,0.7l0.3,0.7l0.1,0.5v0.8l-0.1,0.5
	C589.4,359.8,588.7,360.6,587.9,361.2z M584.6,347l-0.9,0.5l-0.3,0.9l-0.5,0.5H581l-0.8,0.3v0.7l-0.3,0.5l-0.1,0.6l0.2,0.5l0.2,0.5
	c0,0,0.5,0.6,0,1c0,0-0.6,0-0.8-0.2c-0.1-0.2-1.1-0.8-1.2-0.9c-0.2-0.2-0.7-0.3-0.7-0.3l-0.7-0.2h-0.6v-0.9v-0.7l-0.3-0.5l-0.7-0.5
	v-0.6l0.1-0.3c1.7-1.7,4.1-2.7,6.7-2.7c1.5,0,2.8,0.4,4.1,0.9v0.2L584.6,347z"/>
<path class="st0" d="M51,370v-30h8v-2h2v2h10v-2h2v2h8v30H51z M79,342h-6v2h-2v-2H61v2h-2v-2h-6v4h2h24V342z M79,348H55h-2v20h26
	V348z M61,358h-6v-6h6V358z M59,354h-2v2h2V354z M61,366h-6v-6h6V366z M59,362h-2v2h2V362z M69,358h-6v-6h6V358z M67,354h-2v2h2V354
	z M69,366h-6v-6h6V366z M67,362h-2v2h2V362z M77,358h-6v-6h6V358z M75,354h-2v2h2V354z M77,366h-6v-6h6V366z M75,362h-2v2h2V362z"/>
<path class="st0" d="M182,370h-2h-16v-14v-2v-16h16h2h14v32H182z M194,356h-2h-2v-2h2h2v-12.6l-2.3,2.3l-1.4-1.4l2.3-2.3H182v4h-2
	v-4h-12.6l2.3,2.3l-1.4,1.4l-2.3-2.3V354h4v2h-4v10.6l2.3-2.3l1.4,1.4l-2.3,2.3H180v-2v-2h2v2v2h10.6l-2.3-2.3l1.4-1.4l2.3,2.3V356z
	 M180,356h-6v-2h6v-6h2v8h-1H180z"/>
<path class="st0" d="M324,369h-28h-2v-2v-10h2v10h28v-10h2v10v2H324z M310,361L310,361l-1-0.6l-7.7-7.7l1.4-1.4l6.3,6.3V339h2v18.6
	l6.3-6.3l1.4,1.4l-7.7,7.7L310,361z"/>
<path class="st0" d="M432,339h28h2v2v10h-2v-10h-28v10h-2v-10v-2H432z M446,347L446,347l1,0.6l7.7,7.7l-1.4,1.4l-6.3-6.3V369h-2
	v-18.6l-6.3,6.3l-1.4-1.4l7.7-7.7L446,347z"/>
<path class="st0" d="M731,356v6v2v4v2h-2h-25h-2v-2v-4v-2v-6h-2v-6l4-12h24l4,12v6H731z M704,368h25v-4h-25V368z M704,362h25v-6h-6
	h-7h-7h-5V362z M723,354v-2h-3v2H723z M718,354v-2h-3v2H718z M710,354h3v-2h-3V354z M702,354h6v-2h-6V354z M729.1,349.3L729.1,349.3
	l-2.9-9.3h-20.5l-2.8,9.3h-0.1l-0.2,0.7h6.3h7h7h6.3L729.1,349.3z M730,352h-5v2h5V352z"/>
<path class="st0" d="M296,299v-18h3h4h2h3h7v-2v-4v-1c0-2.8-2.2-5-5-5s-5,2.2-5,5v1h-2v-1c0-3.9,3.1-7,7-7s7,3.1,7,7v3v1v3h7v18H296
	z M322,283h-24v14h24V283z M312,291h-4v-4h4V291z"/>
<path class="st0" d="M194,299h-28v-18h7v-3v-1v-3c0-3.9,3.1-7,7-7s7,3.1,7,7v3v1v3h7V299z M185,279v-4v-1c0-2.8-2.2-5-5-5
	s-5,2.2-5,5v1v4v2h10V279z M192,283h-24v14h24V283z M182,291h-4v-4h4V291z"/>
<path class="st0" d="M716,292c-8.3,0-15-6.7-15-15h2c0,7.2,5.8,13,13,13s13-5.8,13-13h2C731,285.3,724.3,292,716,292z M717,296h7v2
	h-7h-2h-7v-2h7v-4h1h1V296z M716,284c-3,0-5.4-2.2-5.9-5H710v-8h0.1c0.5-2.8,2.9-5,5.9-5s5.4,2.2,5.9,5h0.1v8h-0.1
	C721.4,281.8,719,284,716,284z M720,272c0-2.2-1.8-4-4-4s-4,1.8-4,4v6c0,2.2,1.8,4,4,4s4-1.8,4-4V272z"/>
<path class="st0" d="M460.2,299h-2c0-0.2,0-0.3,0-0.5c0-6.4-5.2-11.5-11.5-11.5c-6.4,0-11.5,5.1-11.5,11.5c0,0.2,0,0.3,0,0.5h-2
	c0-5.8,3.6-10.7,8.6-12.6c-3.2-1.7-5.4-5.1-5.4-9.1c0-5.7,4.6-10.3,10.3-10.3c5.7,0,10.3,4.6,10.3,10.3c0,3.9-2.2,7.3-5.4,9.1
	C456.6,288.3,460.2,293.2,460.2,299z M454.8,277.3c0-4.5-3.6-8.1-8.1-8.1s-8.1,3.6-8.1,8.1s3.6,8.1,8.1,8.1
	C451.1,285.4,454.8,281.8,454.8,277.3z"/>
<path class="st0" d="M81,270v24h-0.9l-13.2,3.8v0.2h-2l0,0l-13.1-4h-0.9v-24h-0.1l0.1-1v-1h2l0,0l13,2l13-2l0,0h2v1L81,270L81,270z
	 M65,271.9l-12-1.6v22l12,3.4V271.9z M67,271.9v23.8l12-3.4v-22L67,271.9z"/>
<path class="st0" d="M595.2,299h-6h-2h-4h-2h-14h-2v-2v-18h0.6l3.4-2.9V269h2v5.3l9.4-8.1l0.7-0.2l0.7,0.2l14.7,12.8h0.6v18v2H595.2
	z M583.2,297h4v-11h-4V297z M595.2,280.5l-14-12.1l-10,8.7l0,0l0,0l-4,3.5V297h14v-13h8v13h6V280.5z M571.2,284h6v6h-6V284z
	 M573.2,288h2v-2h-2V288z"/>
<path class="st0" d="M194,226h-20h-2v-2v-4h-6h-2v-2v-10h1h1h6v-4v-2h2h20h2v2v20v2H194z M172,210h-6v8h6V210z M194,204h-20v20h20
	V204z M189,194h2v6h-2V194z M183,194h2v6h-2V194z M177,194h2v6h-2V194z"/>
<path class="st0" d="M717.5,220l-11.2,6l0,0h-1h-2v-2v-4h-4v-2v-22v-2h2h28h2v2v22v2H717.5z M729.3,196h-28v22h2h2v2v3.9l11.6-5.8
	l0.4-0.1l0,0h12V196z"/>
<path class="st0" d="M592.2,202v24h-2h-8h-2h-8h-2v-24h-3v-2h8v-4v-2h2h8h2v2v4h8v2H592.2z M575.2,202h-3v22h8v-22h-3H575.2z
	 M585.2,196h-8v4h8V196z M590.2,202h-3h-2h-3v22h8V202z"/>
<path class="st0" d="M323.1,226h-1h-6h-2v-2v-12v-2h2h6c0-7.2-5.8-13-13-13s-13,5.8-13,13h6h1h1v16h-1h-1h-6h-2v-2v-12v-2
	c0-8.3,6.7-15,15-15s15,6.7,15,15v16H323.1z M296.1,224h6v-12h-6V224z M316.1,212v12h6v-12H316.1z"/>
<path class="st0" d="M79,226v-10h-2h-2v-2v-18v-2h2h2h2v2v18v2v10H79z M79,196h-2v18h2V196z M60,209.9V226h-2v-16.1
	c-3.9-0.5-7-3.9-7-7.9v-8h2v8c0,3,2.2,5.4,5,5.9V194h2v13.9c2.8-0.5,5-2.9,5-5.9v-8h2v8C67,206.1,64,209.4,60,209.9z"/>
<path class="st0" d="M460.2,225h-28h-2v-2v-20v-2h2h4h8v-4v-2h2h8h2v2v4h4h2v2v20v2H460.2z M454.2,197h-8v4h8V197z M460.2,203h-28
	v20h28V203z M450.2,207c3.3,0,6,2.7,6,6s-2.7,6-6,6s-6-2.7-6-6S446.9,207,450.2,207z M450.2,217c2.2,0,4-1.8,4-4s-1.8-4-4-4
	s-4,1.8-4,4S448,217,450.2,217z M434.2,199c0-1.1,0.9-2,2-2c1.1,0,2,0.9,2,2s-0.9,2-2,2C435.1,201,434.2,200.1,434.2,199z"/>
<path class="st0" d="M581.2,154c0,0-13-11.8-13-19s5.8-13,13-13s13,5.8,13,13S581.2,154,581.2,154z M581.2,124c-6.1,0-11,4.9-11,11
	s4.9,11,11,11s11-4.9,11-11S587.2,124,581.2,124z"/>
<path class="st0" d="M731.3,137v2h-4.1c-0.2,2.6-1.2,4.9-2.8,6.7l2.5,2.5l-1.4,1.4l-2.6-2.5c-1.9,1.6-4.2,2.6-6.7,2.8v4.1h-2v-4.1
	c-2.6-0.2-4.9-1.2-6.8-2.8l-2.5,2.5l-1.4-1.4l2.5-2.5c-1.6-1.9-2.6-4.2-2.8-6.7h-4.1v-2h4.1c0.2-2.6,1.2-4.9,2.8-6.7l-3.6-3.5
	l1.4-1.4l3.6,3.5c1.9-1.6,4.2-2.6,6.8-2.8V122h2v4.1c2.6,0.2,4.9,1.2,6.7,2.8l3.6-3.5l1.4,1.4l-3.6,3.5c1.6,1.9,2.6,4.2,2.8,6.7
	H731.3z M715.3,128c-5.5,0-10,4.5-10,10s4.5,10,10,10s10-4.5,10-10S720.8,128,715.3,128z M715.3,140c-1.1,0-2-0.9-2-2s0.9-2,2-2
	s2,0.9,2,2S716.4,140,715.3,140z"/>
<path class="st0" d="M446.2,154c0,0-13-11.8-13-19s5.8-13,13-13s13,5.8,13,13S446.2,154,446.2,154z M446.2,124c-6.1,0-11,4.9-11,11
	s4.9,11,11,11s11-4.9,11-11S452.2,124,446.2,124z M446.2,137c-1.1,0-2-0.9-2-2s0.9-2,2-2s2,0.9,2,2S447.3,137,446.2,137z"/>
<path class="st0" d="M324.1,154h-28h-2v-2v-20v-2h2h4v-6v-2h2h22h2v2v28v2H324.1z M302.1,124v6v2v16h-2v-16h-4v20h28v-28H302.1z
	 M308.1,145v-2h10v2H308.1z M308.1,137h10v2h-10C308.1,139,308.1,137,308.1,137z M308.1,131h10v2h-10C308.1,133,308.1,131,308.1,131
	z"/>
<path class="st0" d="M189.1,150L189.1,150h-18l0,0c-3.9-0.3-7-3.5-7-7.5c0-3.3,2.1-6,5-7.1V135l0,0c0-5,4-9,9-9s9,4,9,9h1l2,0.2
	c3.4,0.7,6,3.7,6,7.3C196.1,146.5,193,149.7,189.1,150z M171.1,137c-3,0-5,2.5-5,5.5s2.5,5.5,5.5,5.5h17c3,0,5.5-2.5,5.5-5.5
	s-2.5-5.5-5.5-5.5h-3.5v-2c0-3.6-3.4-6.6-7-6.6c-3.6,0-7,3-7,6.6V137z"/>
<path class="st0" d="M82.7,153.3l-1.4,1.4l-8.1-8.1c-2.5,2.1-5.7,3.4-9.2,3.4c-7.7,0-14-6.3-14-14c0-7.7,6.3-14,14-14s14,6.3,14,14
	c0,3.5-1.3,6.7-3.4,9.2L82.7,153.3z M76,136c0-6.6-5.4-12-12-12c-6.6,0-12,5.4-12,12s5.4,12,12,12S76,142.6,76,136z M58,135h12v2H58
	V135z"/>
<path class="st0" d="M732,81.3l-1.4,1.4l-8.1-8.1c-2.5,2.1-5.7,3.4-9.2,3.4c-7.7,0-14-6.3-14-14s6.3-14,14-14s14,6.3,14,14
	c0,3.5-1.3,6.7-3.4,9.2L732,81.3z M725.3,64c0-6.6-5.4-12-12-12s-12,5.4-12,12s5.4,12,12,12S725.3,70.6,725.3,64z M714.3,70h-2v-5
	h-5v-2h5v-5h2v5h5v2h-5V70z"/>
<path class="st0" d="M597.9,81.3l-1.4,1.4l-8.1-8.1c-2.5,2.1-5.7,3.4-9.2,3.4c-7.7,0-14-6.3-14-14s6.3-14,14-14c7.7,0,14,6.3,14,14
	c0,3.5-1.3,6.7-3.4,9.2L597.9,81.3z M579.2,52c-6.6,0-12,5.4-12,12s5.4,12,12,12s12-5.4,12-12S585.8,52,579.2,52z"/>
<path class="st0" d="M80,80H52h-2v-2V54v-2h2h28h2v2v24v2H80z M80,78V55.4L66.7,68.7L66,69l-0.7-0.3L52,55.4V78H80z M78.6,54H53.4
	L66,66.6L78.6,54z"/>
<path class="st0" d="M194.1,82h-28h-2v-2V62v-2v-4v-2h2h3.9l0,0h1.1h0.9v2h-0.9l0,0h-5v4h28v-4h-5l0,0H188v-2h1.1h0.9l0,0h4.1h2v2v4
	v2v18v2H194.1z M194.1,62h-28v18h28C194.1,80,194.1,62,194.1,62z M185.1,56L185.1,56h-10l0,0H174v-2h1.1h0.9l0,0h8l0,0h1.1h0.9v2
	H185.1z M172,50h2v4h-2V50z M186,50h2v4h-2V50z"/>
<path class="st0" d="M446.2,82c-8.8,0-16-7.2-16-16s7.2-16,16-16s16,7.2,16,16S455,82,446.2,82z M446.2,52c-7.7,0-14,6.3-14,14
	s6.3,14,14,14s14-6.3,14-14S453.9,52,446.2,52z M445.2,67v-2v-8h2v8h8v2h-8H445.2z"/>
<path class="st0" d="M324.1,82h-28h-2v-2V60v-2v-6v-2h2h28h2v2v6v2v20v2H324.1z M324.1,52h-28v6h28V52z M324.1,60h-28v20h28V60z
	 M305.1,69h-6v-6h6V69z M303.1,65h-2v2h2V65z M305.1,77h-6v-6h6V77z M303.1,73h-2v2h2V73z M313.1,69h-6v-6h6V69z M311.1,65h-2v2h2
	V65z M313.1,77h-6v-6h6V77z M311.1,73h-2v2h2V73z M321.1,77h-6V63h6V77z M319.1,65h-2v10h2V65z"/>
</svg>
