<?xml version="1.0" encoding="UTF-8" standalone="no"?>
<!-- Generator: Adobe Illustrator 19.0.1, SVG Export Plug-In . SVG Version: 6.00 Build 0)  -->

<svg
   xmlns:dc="http://purl.org/dc/elements/1.1/"
   xmlns:cc="http://creativecommons.org/ns#"
   xmlns:rdf="http://www.w3.org/1999/02/22-rdf-syntax-ns#"
   xmlns:svg="http://www.w3.org/2000/svg"
   xmlns="http://www.w3.org/2000/svg"
   xmlns:sodipodi="http://sodipodi.sourceforge.net/DTD/sodipodi-0.dtd"
   xmlns:inkscape="http://www.inkscape.org/namespaces/inkscape"
   version="1.1"
   id="Layer_1"
   x="0px"
   y="0px"
   width="782.1px"
   height="636px"
   viewBox="0 0 782.1 636"
   style="enable-background:new 0 0 782.1 636;"
   xml:space="preserve"
   sodipodi:docname="my-icons.svg"
   inkscape:version="0.92.4 (5da689c313, 2019-01-14)"><metadata
   id="metadata256"><rdf:RDF><cc:Work
       rdf:about=""><dc:format>image/svg+xml</dc:format><dc:type
         rdf:resource="http://purl.org/dc/dcmitype/StillImage" /><dc:title></dc:title></cc:Work></rdf:RDF></metadata><defs
   id="defs254" /><sodipodi:namedview
   pagecolor="#ffffff"
   bordercolor="#666666"
   borderopacity="1"
   objecttolerance="10"
   gridtolerance="10"
   guidetolerance="10"
   inkscape:pageopacity="0"
   inkscape:pageshadow="2"
   inkscape:window-width="1366"
   inkscape:window-height="704"
   id="namedview252"
   showgrid="false"
   inkscape:zoom="0.80345912"
   inkscape:cx="222.71064"
   inkscape:cy="406.32145"
   inkscape:window-x="0"
   inkscape:window-y="27"
   inkscape:window-maximized="1"
   inkscape:current-layer="Layer_1" />
<style
   type="text/css"
   id="style153">
	.st0{fill:#444444;}
</style>
















































<path
   class="st0"
   d="m 251.34648,51.64078 v 57.6 h -2.1457 l -31.47019,9.12 v 0.48 h -4.76822 v 0 l -31.23178,-9.6 h -2.1457 v -57.6 h -0.23841 l 0.23841,-2.4 v -2.4 h 4.76821 v 0 l 30.99338,4.8 30.99338,-4.8 v 0 h 4.76821 v 2.4 z m -38.1457,4.56 -28.60927,-3.84 v 52.8 l 28.60927,8.16 z m 4.76822,0 v 57.12 l 28.60927,-8.16 v -52.8 z"
   id="path211"
   inkscape:connector-curvature="0"
   style="fill:#1a1a1a;stroke-width:2.39203978"
   inkscape:export-xdpi="96"
   inkscape:export-ydpi="96" /><path
   class="st0"
   d="m 139.3113,118.33316 h -62.999999 -4.5 v -4.5 -44.999996 -4.5 -13.5 -4.5 h 4.5 62.999999 4.5 v 4.5 13.5 4.5 44.999996 4.5 z m 0,-67.499996 H 76.311301 v 13.5 H 139.3113 Z m 0,18 H 76.311301 V 113.83316 H 139.3113 Z m -42.749999,20.25 h -13.5 v -13.5 h 13.5 z m -4.5,-9 h -4.49999 v 4.5 h 4.49999 z m 4.5,26.999996 h -13.5 V 93.583164 h 13.5 z m -4.5,-9.000006 h -4.49999 v 4.499996 h 4.49999 z m 22.499999,-8.99999 h -13.5 v -13.5 h 13.5 z m -4.5,-9 h -4.5 v 4.5 h 4.5 z m 4.5,26.999996 h -13.5 V 93.583164 h 13.5 z m -4.5,-9.000006 h -4.5 v 4.499996 h 4.5 z m 22.5,9.000006 h -13.5 V 75.583164 h 13.5 z m -4.50001,-26.999996 h -4.5 v 22.499986 h 4.5 z"
   id="path249"
   inkscape:connector-curvature="0"
   style="fill:#1a1a1a;stroke-width:2.24999976"
   inkscape:export-xdpi="96"
   inkscape:export-ydpi="96" /><path
   class="st0"
   d="m 138.09403,211.30285 h -62.999998 -4.5 v -4.5 -45 -4.5 h 4.5 9 v -13.5 -4.5 h 4.5 49.499998 4.5 v 4.5 63 4.5 z m -49.499998,-67.5 v 13.5 4.5 36 h -4.5 v -36 h -9 v 45 h 62.999998 v -63 z m 13.499998,47.25 v -4.5 h 22.5 v 4.5 z m 0,-18 h 22.5 v 4.5 h -22.5 c 0,0 0,-4.5 0,-4.5 z m 0,-13.5 h 22.5 v 4.5 h -22.5 c 0,0 0,-4.5 0,-4.5 z"
   id="path233"
   inkscape:connector-curvature="0"
   style="fill:#1a1a1a;stroke-width:2.25"
   inkscape:export-xdpi="96"
   inkscape:export-ydpi="96" /><path
   class="st0"
   d="m 234.79486,196.31484 v 0 h -40.5 v 0 c -8.775,-0.675 -15.75,-7.875 -15.75,-16.87499 0,-7.425 4.725,-13.5 11.25,-15.975 v -0.9 0 c 0,-11.25 9,-20.25 20.25,-20.25 11.25,0 20.25,9 20.25,20.25 h 2.25 l 4.5,0.45 c 7.65,1.575 13.5,8.325 13.5,16.425 0,8.99999 -6.975,16.19999 -15.75,16.87499 z m -40.5,-29.24999 c -6.75,0 -11.25,5.625 -11.25,12.375 0,6.75 5.625,12.37499 12.375,12.37499 h 38.25 c 6.75,0 12.375,-5.62499 12.375,-12.37499 0,-6.75 -5.625,-12.375 -12.375,-12.375 h -7.875 v -4.5 c 0,-8.1 -7.65,-14.85 -15.75,-14.85 -8.1,0 -15.75,6.75 -15.75,14.85 z"
   id="path235"
   inkscape:connector-curvature="0"
   style="fill:#1a1a1a;stroke-width:2.25"
   inkscape:export-xdpi="96"
   inkscape:export-ydpi="96" /></svg>